<svg xmlns="http://www.w3.org/2000/svg" viewBox="0 0 280 80">
  <defs>
    <linearGradient id="bgGrad" x1="0%" y1="0%" x2="100%" y2="100%">
      <stop offset="0%" style="stop-color:#6366f1"/>
      <stop offset="100%" style="stop-color:#8b5cf6"/>
    </linearGradient>
    <linearGradient id="dragonGrad" x1="0%" y1="0%" x2="0%" y2="100%">
      <stop offset="0%" style="stop-color:#4ade80"/>
      <stop offset="100%" style="stop-color:#22c55e"/>
    </linearGradient>
  </defs>
  
  <rect x="0" y="0" width="280" height="80" rx="16" fill="url(#bgGrad)"/>
  
  <g transform="translate(16, 12)">
    <circle cx="28" cy="28" r="26" fill="url(#dragonGrad)"/>
    
    <ellipse cx="20" cy="24" rx="8" ry="10" fill="white"/>
    <ellipse cx="36" cy="24" rx="8" ry="10" fill="white"/>
    <circle cx="22" cy="26" r="4" fill="#1a1a2e"/>
    <circle cx="38" cy="26" r="4" fill="#1a1a2e"/>
    <circle cx="23" cy="25" r="1.5" fill="white"/>
    <circle cx="39" cy="25" r="1.5" fill="white"/>
    
    <ellipse cx="14" cy="34" rx="5" ry="3" fill="#fda4af" opacity="0.6"/>
    <ellipse cx="42" cy="34" rx="5" ry="3" fill="#fda4af" opacity="0.6"/>
    
    <path d="M24 40 Q28 45 32 40" stroke="#16a34a" stroke-width="2.5" fill="none" stroke-linecap="round"/>
    
    <ellipse cx="18" cy="4" rx="3" ry="6" fill="#fbbf24" transform="rotate(-15, 18, 4)"/>
    <ellipse cx="38" cy="4" rx="3" ry="6" fill="#fbbf24" transform="rotate(15, 38, 4)"/>
  </g>
  
  <text x="80" y="52" font-family="'Nunito', 'Segoe UI', Arial, sans-serif" font-size="32" font-weight="700" fill="white" letter-spacing="-0.5">
    MinesMinis
  </text>
</svg>